<svg width="128" height="128" viewBox="0 0 128 128" xmlns="http://www.w3.org/2000/svg">
  <rect width="128" height="128" rx="20" fill="#1f2e43"/>
  <g transform="translate(10,42) scale(0.38)">
    <g fill="#ffffff">
      <path d="M10 100 L10 20 L40 60 L70 20 L70 100 L55 100 L55 50 L40 75 L25 50 L25 100 Z"/>
      <path d="M90 20 L130 20 Q170 20 170 60 Q170 100 130 100 L90 100 Z M105 35 L130 35 Q155 35 155 60 Q155 85 130 85 L105 85 Z"/>
      <path d="M200 35 Q200 20 225 20 L255 20 Q280 20 280 35 Q280 50 255 55 L225 60 Q200 65 200 80 Q200 100 225 100 L255 100 Q280 100 280 85 L265 85 Q265 90 255 90 L225 90 Q215 90 215 80 Q215 70 230 67 L260 62 Q280 58 280 40 Q280 20 255 20 L225 20 Q200 20 200 35 Z"/>
    </g>
  </g>
</svg>
